<svg aria-hidden="true" style="position: absolute; width: 0; height: 0; overflow: hidden;" version="1.1"
    xmlns="http://www.w3.org/2000/svg"
    xmlns:xlink="http://www.w3.org/1999/xlink">
    <defs>
        <symbol id="icon-linkedin" viewBox="0 0 32 32">
            <path d="M31.992 32v-0.001h0.008v-11.736c0-5.741-1.236-10.164-7.948-10.164-3.227 0-5.392 1.771-6.276 3.449h-0.093v-2.913h-6.364v21.364h6.627v-10.579c0-2.785 0.528-5.479 3.977-5.479 3.399 0 3.449 3.179 3.449 5.657v10.401h6.62z"></path>
            <path d="M0.528 10.636h6.635v21.364h-6.635v-21.364z"></path>
            <path d="M3.843 0c-2.121 0-3.843 1.721-3.843 3.843s1.721 3.879 3.843 3.879c2.121 0 3.843-1.757 3.843-3.879-0.001-2.121-1.723-3.843-3.843-3.843v0z"></path>
        </symbol>
        <symbol id="icon-facebook" viewBox="0 0 32 32">
            <path d="M21.329 5.313h2.921v-5.088c-0.504-0.069-2.237-0.225-4.256-0.225-4.212 0-7.097 2.649-7.097 7.519v4.481h-4.648v5.688h4.648v14.312h5.699v-14.311h4.46l0.708-5.688h-5.169v-3.919c0.001-1.644 0.444-2.769 2.735-2.769z"></path>
        </symbol>
        <symbol id="icon-twitter" viewBox="0 0 32 32">
            <path d="M32 6.078c-1.19 0.522-2.458 0.868-3.78 1.036 1.36-0.812 2.398-2.088 2.886-3.626-1.268 0.756-2.668 1.29-4.16 1.588-1.204-1.282-2.92-2.076-4.792-2.076-3.632 0-6.556 2.948-6.556 6.562 0 0.52 0.044 1.020 0.152 1.496-5.454-0.266-10.28-2.88-13.522-6.862-0.566 0.982-0.898 2.106-0.898 3.316 0 2.272 1.17 4.286 2.914 5.452-1.054-0.020-2.088-0.326-2.964-0.808 0 0.020 0 0.046 0 0.072 0 3.188 2.274 5.836 5.256 6.446-0.534 0.146-1.116 0.216-1.72 0.216-0.42 0-0.844-0.024-1.242-0.112 0.85 2.598 3.262 4.508 6.13 4.57-2.232 1.746-5.066 2.798-8.134 2.798-0.538 0-1.054-0.024-1.57-0.090 2.906 1.874 6.35 2.944 10.064 2.944 12.072 0 18.672-10 18.672-18.668 0-0.29-0.010-0.57-0.024-0.848 1.302-0.924 2.396-2.078 3.288-3.406z"></path>
        </symbol>
        <symbol id="icon-instagram" viewBox="0 0 32 32">
            <path d="M31.969 9.408c-0.075-1.7-0.35-2.869-0.744-3.882-0.406-1.075-1.032-2.038-1.851-2.838-0.8-0.813-1.769-1.444-2.832-1.844-1.019-0.394-2.182-0.669-3.882-0.744-1.713-0.081-2.257-0.1-6.601-0.1s-4.888 0.019-6.595 0.094c-1.7 0.075-2.869 0.35-3.882 0.744-1.075 0.406-2.038 1.031-2.838 1.85-0.813 0.8-1.444 1.769-1.844 2.832-0.394 1.019-0.669 2.182-0.744 3.882-0.081 1.713-0.1 2.257-0.1 6.601s0.019 4.888 0.094 6.595c0.075 1.7 0.35 2.869 0.744 3.882 0.406 1.075 1.038 2.038 1.85 2.838 0.8 0.813 1.769 1.444 2.832 1.844 1.019 0.394 2.182 0.669 3.882 0.744 1.706 0.075 2.25 0.094 6.595 0.094s4.888-0.019 6.595-0.094c1.7-0.075 2.869-0.35 3.882-0.744 2.151-0.832 3.851-2.532 4.682-4.682 0.394-1.019 0.669-2.182 0.744-3.882 0.075-1.707 0.094-2.251 0.094-6.595s-0.006-4.888-0.081-6.595zM29.087 22.473c-0.069 1.563-0.331 2.407-0.55 2.969-0.538 1.394-1.644 2.5-3.038 3.038-0.563 0.219-1.413 0.481-2.969 0.55-1.688 0.075-2.194 0.094-6.464 0.094s-4.782-0.019-6.464-0.094c-1.563-0.069-2.407-0.331-2.969-0.55-0.694-0.256-1.325-0.663-1.838-1.194-0.531-0.519-0.938-1.144-1.194-1.838-0.219-0.563-0.481-1.413-0.55-2.969-0.075-1.688-0.094-2.194-0.094-6.464s0.019-4.782 0.094-6.464c0.069-1.563 0.331-2.407 0.55-2.969 0.256-0.694 0.663-1.325 1.2-1.838 0.519-0.531 1.144-0.938 1.838-1.194 0.563-0.219 1.413-0.481 2.969-0.55 1.688-0.075 2.194-0.094 6.464-0.094 4.276 0 4.782 0.019 6.464 0.094 1.563 0.069 2.407 0.331 2.969 0.55 0.694 0.256 1.325 0.662 1.838 1.194 0.531 0.519 0.938 1.144 1.194 1.838 0.219 0.563 0.481 1.413 0.55 2.969 0.075 1.688 0.094 2.194 0.094 6.464s-0.019 4.77-0.094 6.458z"></path>
            <path d="M16.059 7.783c-4.538 0-8.22 3.682-8.22 8.22s3.682 8.22 8.22 8.22c4.538 0 8.22-3.682 8.22-8.22s-3.682-8.22-8.22-8.22zM16.059 21.335c-2.944 0-5.332-2.388-5.332-5.332s2.388-5.332 5.332-5.332c2.944 0 5.332 2.388 5.332 5.332s-2.388 5.332-5.332 5.332z"></path>
            <path d="M26.524 7.458c0 1.060-0.859 1.919-1.919 1.919s-1.919-0.859-1.919-1.919c0-1.060 0.859-1.919 1.919-1.919s1.919 0.859 1.919 1.919z"></path>
        </symbol>
        <symbol id="icon-send" viewBox="0 0 32 32">
            <path fill="#fff" d="M32 0 0 18l10.23 3.79L26 7 14 23.19h.01H14V32l5.74-6.7L27 28l5-28z" style="fill:var(--color1, #fff)"/>
        </symbol>
        <symbol id="icon-envelope" viewBox="0 0 43 32">
            <path d="M38.667 0h-34.667c-2.206 0-4 1.794-4 4v24c0 2.206 1.794 4 4 4h34.667c2.206 0 4-1.794 4-4v-24c0-2.206-1.794-4-4-4zM38.667 2.667c0.181 0 0.353 0.038 0.511 0.103l-17.844 15.466-17.844-15.466c0.158-0.066 0.33-0.103 0.511-0.103h34.667zM38.667 29.333h-34.667c-0.736 0-1.333-0.598-1.333-1.333v-22.413l17.793 15.421c0.251 0.217 0.563 0.326 0.874 0.326s0.622-0.108 0.874-0.326l17.793-15.421v22.413c0 0.736-0.598 1.333-1.333 1.333z"></path>
        </symbol>
        <symbol id="icon-smartphone" viewBox="0 0 20 32">
            <path d="M17 0h-14c-1.654 0-3 1.346-3 3v26c0 1.654 1.346 3 3 3h14c1.654 0 3-1.346 3-3v-26c0-1.654-1.346-3-3-3zM3 2h14c0.552 0 1 0.448 1 1v21h-16v-21c0-0.552 0.448-1 1-1zM17 30h-14c-0.552 0-1-0.448-1-1v-3h16v3c0 0.552-0.448 1-1 1z"></path>
            <path d="M4.707 27.478c0.391 0.365 0.391 0.956 0 1.321s-1.024 0.365-1.414 0c-0.391-0.365-0.391-0.956 0-1.321s1.024-0.365 1.414 0z"></path>
        </symbol>
        <symbol id="icon-x" viewBox="0 0 32 32">
            <path d="M15 4.1 13.9 3 9.5 7.4 5.1 3 4 4.1l4.4 4.4L4 12.9 5.1 14l4.4-4.4 4.4 4.4 1.1-1.1-4.4-4.4L15 4.1Z"/>
        </symbol>
        <symbol id="icon-menu" viewBox="0 0 32 32">
            <path d="M6.4 11.73V9.6h19.2v2.13H6.4zm0 5.34h19.2v-2.14H6.4v2.14zm0 5.33h19.2v-2.13H6.4v2.13z"/>
        </symbol>
        <symbol id="icon-whatsapp" viewBox="0 0 48 48">
            <path d="M40.92 6.97A23.6 23.6 0 0 0 24.1 0 23.8 23.8 0 0 0 3.5 35.67L.13 48l12.61-3.3c3.48 1.88 7.39 2.89 11.36 2.89h.01A23.82 23.82 0 0 0 40.92 6.98zM24.1 43.58c-3.55 0-7.03-.95-10.07-2.75l-.72-.43-7.48 1.96 2-7.3-.47-.75A19.8 19.8 0 0 1 38.09 9.8 19.8 19.8 0 0 1 24.1 43.58zm10.84-14.8c-.59-.3-3.51-1.74-4.06-1.94s-.94-.3-1.34.3c-.4.6-1.54 1.93-1.88 2.34-.35.39-.7.45-1.29.15s-2.51-.93-4.78-2.96c-1.76-1.57-2.96-3.52-3.3-4.11s-.04-.92.26-1.21c.27-.26.59-.7.89-1.04s.4-.6.59-1c.2-.4.1-.74-.05-1.04s-1.34-3.22-1.83-4.41c-.47-1.17-.97-1-1.34-1.03-.34-.02-.74-.02-1.13-.02s-1.04.15-1.59.75c-.54.59-2.08 2.03-2.08 4.95s2.13 5.75 2.43 6.15c.3.4 4.2 6.4 10.15 8.98 1.42.6 2.53.97 3.39 1.25 1.42.45 2.72.39 3.74.24 1.14-.17 3.52-1.44 4.01-2.82s.5-2.58.35-2.83c-.14-.26-.53-.41-1.13-.71z"/>
        </symbol>
        <symbol id="icon-github" viewBox="0 0 48 48">
            <path d="M24 .6a24 24 0 0 0-7.59 46.77c1.2.22 1.64-.52 1.64-1.16l-.03-4.47c-6.68 1.46-8.09-2.83-8.09-2.83-1.09-2.77-2.66-3.51-2.66-3.51-2.18-1.49.16-1.46.16-1.46 2.41.17 3.68 2.47 3.68 2.47 2.14 3.67 5.62 2.61 6.99 2a5.1 5.1 0 0 1 1.52-3.21C14.3 34.6 8.7 32.53 8.7 23.34a9.3 9.3 0 0 1 2.47-6.44c-.25-.6-1.07-3.05.23-6.36 0 0 2.02-.64 6.6 2.46a22.98 22.98 0 0 1 12.02 0c4.58-3.1 6.6-2.46 6.6-2.46 1.3 3.31.48 5.75.23 6.36a9.27 9.27 0 0 1 2.47 6.44c0 9.22-5.61 11.25-10.96 11.84.86.75 1.63 2.2 1.63 4.44 0 3.22-.03 5.8-.03 6.6 0 .63.43 1.38 1.65 1.14A24 24 0 0 0 24 .6z"/>
        </symbol>
        <symbol id="icon-sass" viewBox="0 0 32 32">
            <path fill="#cd6799" d="M27.54 17.8c-1.12 0-2.09.27-2.9.66-.3-.58-.6-1.1-.64-1.48-.06-.45-.13-.72-.06-1.25s.38-1.29.38-1.35c0-.05-.07-.33-.71-.33s-1.2.12-1.26.29-.19.55-.27.94c-.11.58-1.28 2.64-1.95 3.72a4 4 0 0 1-.44-1.08c-.06-.45-.13-.72-.06-1.25s.38-1.3.38-1.35c-.01-.06-.07-.33-.72-.33s-1.19.12-1.25.28c-.07.17-.14.57-.27.95A188.81 188.81 0 0 1 15.15 22l-.02.05-.18.33c-.08.16-.18.3-.22.3-.04 0-.1-.41 0-.98.24-1.2.8-3.06.79-3.12 0-.03.1-.36-.36-.52-.46-.17-.62.1-.66.1s-.07.1-.07.1.5-2.09-.97-2.09c-.92 0-2.19 1-2.82 1.9L8.5 19.23c-.35.2-.7.38-1.04.56l-.07-.07c-1.78-1.89-5.08-3.23-4.94-5.76.05-.93.37-3.35 6.34-6.3 4.9-2.4 8.81-1.74 9.49-.26.96 2.1-2.1 6-7.17 6.57-1.93.22-2.94-.52-3.2-.8-.27-.29-.31-.3-.41-.25-.16.1-.06.35 0 .5.15.4.78 1.09 1.83 1.43.93.3 3.2.47 5.95-.59 3.07-1.18 5.47-4.45 4.76-7.2-.7-2.78-5.36-3.7-9.78-2.15A22.27 22.27 0 0 0 2.75 9.2C.32 11.44-.06 13.4.09 14.22c.57 2.92 4.62 4.81 6.24 6.21l-.22.13c-.81.4-3.9 2-4.67 3.69-.87 1.92.14 3.3.8 3.48 2.09.57 4.23-.46 5.38-2.16a5.3 5.3 0 0 0 .45-4.95l.64-.37c.38-.23.77-.45 1.17-.65-.2.53-.34 1.17-.41 2.1-.1 1.09.36 2.5.95 3.05.26.24.57.25.76.25.7 0 1-.57 1.35-1.24.42-.82.8-1.77.8-1.77s-.48 2.58.8 2.58c.47 0 .94-.6 1.15-.91l.04-.05.07-.12v-.02c.19-.32.6-1.05 1.23-2.27.8-1.57 1.58-3.54 1.58-3.54s.07.48.31 1.28c.14.47.43.98.67 1.48l-.3.4c-.15.2-.32.42-.5.62-.63.76-1.39 1.62-1.5 1.87-.12.3-.09.5.15.68.16.12.47.14.78.12.57-.04.97-.17 1.17-.26.3-.11.67-.28 1-.53.63-.45 1-1.1.97-1.97a3.95 3.95 0 0 0-.36-1.4l.17-.23c.98-1.43 1.74-3 1.74-3s.07.48.31 1.28c.12.4.36.84.57 1.27a5.5 5.5 0 0 0-1.7 2.18c-.37 1.05-.09 1.52.46 1.63.24.06.59-.06.85-.17.32-.1.7-.28 1.08-.55.62-.45 1.22-1.09 1.18-1.95-.01-.4-.12-.78-.26-1.16.78-.32 1.8-.5 3.1-.35 2.76.33 3.31 2.04 3.2 2.76s-.68 1.12-.87 1.24c-.2.12-.26.16-.24.25.02.13.11.12.28.1.23-.04 1.46-.59 1.5-1.92.1-1.7-1.54-3.55-4.42-3.53zm-21.4 7.15c-.93 1-2.21 1.37-2.76 1.06-.6-.35-.37-1.81.76-2.87.7-.64 1.58-1.23 2.17-1.6l.57-.34.06-.03.14-.09c.42 1.5.02 2.83-.95 3.87zm6.7-4.52c-.33.78-1 2.76-1.4 2.65-.35-.1-.57-1.6-.07-3.08.25-.75.78-1.64 1.09-1.98.5-.56 1.05-.74 1.18-.52.17.3-.6 2.45-.8 2.93zm5.53 2.63c-.14.07-.27.11-.33.08-.04-.02.06-.12.06-.12s.7-.74.97-1.07l.54-.69v.07c0 .89-.86 1.49-1.25 1.73zm4.26-.97c-.1-.07-.08-.3.25-1.02.13-.28.44-.76.95-1.22.06.19.1.37.1.54 0 1.11-.81 1.53-1.3 1.7z" style="fill:var(--color1, #cd6799)"/>
        </symbol>
        <symbol id="icon-tailwind" viewBox="0 0 32 32">
            <path fill="#44a8b3" d="M9 13.7c.93-3.73 3.27-5.6 7-5.6 5.6 0 6.3 4.2 9.1 4.9 1.87.47 3.5-.23 4.9-2.1-.93 3.73-3.27 5.6-7 5.6-5.6 0-6.3-4.2-9.1-4.9-1.87-.47-3.5.23-4.9 2.1zm-7 8.4c.93-3.73 3.27-5.6 7-5.6 5.6 0 6.3 4.2 9.1 4.9 1.87.47 3.5-.23 4.9-2.1-.93 3.73-3.27 5.6-7 5.6-5.6 0-6.3-4.2-9.1-4.9-1.87-.47-3.5.23-4.9 2.1z" style="fill:var(--color1, #44a8b3)"/>
        </symbol>
        <symbol id="icon-css" viewBox="0 0 32 32">
            <path fill="#1572b6" d="M5.9 27.1 3.66 2.13h24.68L26.1 27.1 16 29.88 5.9 27.11z" style="fill:var(--color2, #1572b6)"/>
            <path fill="#33a9dc" d="m16 27.76 8.17-2.25 1.92-21.35H16v23.6z" style="fill:var(--color3, #33a9dc)"/>
            <path fill="#fff" d="M16 13.21h4.09l.28-3.14H16V7.02h7.75l-.07.82-.76 8.45H16V13.2z" style="fill:var(--color4, #fff)"/>
            <path fill="#ebebeb" d="M16.02 21.17H16l-3.44-.91-.22-2.45h-3.1l.43 4.82L16 24.36h.02v-3.2z" style="fill:var(--color5, #ebebeb)"/>
            <path fill="#fff" d="m19.83 16.15-.37 4.1-3.45.93v3.18l6.33-1.74.05-.51.54-5.96h-3.1z" style="fill:var(--color4, #fff)"/>
            <path fill="#ebebeb" d="M16.01 7.01v3.07H8.54l-.06-.7-.14-1.55-.07-.82H16zm-.01 6.2v3.07h-3.4l-.06-.69-.14-1.55-.08-.83H16z" style="fill:var(--color5, #ebebeb)"/>
        </symbol>
        <symbol id="icon-html" viewBox="0 0 32 32">
            <path fill="#e44f26" d="M5.9 27.2 3.65 2h24.7L26.1 27.2 15.99 30 5.9 27.2z" style="fill:var(--color6, #e44f26)"/>
            <path fill="#f1662a" d="m16 27.86 8.17-2.27 1.92-21.53H16v23.8z" style="fill:var(--color7, #f1662a)"/>
            <path fill="#ebebeb" d="M16 13.4h-4.09l-.28-3.16H16V7.15H8.25l.07.83.76 8.52H16v-3.1zm0 8.03h-.01l-3.45-.92-.22-2.47h-3.1l.43 4.86L16 24.65H16v-3.22z" style="fill:var(--color5, #ebebeb)"/>
            <path fill="#fff" d="M15.99 13.4v3.1h3.8l-.35 4-3.45.94v3.21l6.34-1.75.04-.53.73-8.13.07-.83H16zm0-6.25v3.1h7.47l.06-.7.14-1.57.07-.83H16z" style="fill:var(--color4, #fff)"/>
        </symbol>
        <symbol id="icon-js" viewBox="0 0 32 32">
            <path fill="#f5de19" d="M2 2h28v28H2V2z" style="fill:var(--color8, #f5de19)"/>
            <path d="M20.8 23.88a2.87 2.87 0 0 0 2.6 1.6c1.1 0 1.8-.55 1.8-1.3 0-.9-.72-1.23-1.92-1.75l-.66-.28c-1.9-.81-3.16-1.83-3.16-3.97 0-1.97 1.5-3.47 3.85-3.47a3.88 3.88 0 0 1 3.75 2.1L25 18.13A1.79 1.79 0 0 0 23.31 17a1.13 1.13 0 0 0-.88.29 1.16 1.16 0 0 0-.38.84c0 .79.5 1.1 1.62 1.6l.66.28c2.23.96 3.5 1.94 3.5 4.13 0 2.37-1.86 3.67-4.36 3.67a5.06 5.06 0 0 1-4.8-2.69l2.14-1.24zm-9.29.22c.42.74.8 1.36 1.7 1.36.86 0 1.4-.34 1.4-1.66v-8.94h2.64v8.98c0 2.72-1.6 3.96-3.93 3.96a4.09 4.09 0 0 1-3.95-2.4l2.14-1.3z" style="fill:var(--color9, #000)"/>
        </symbol>
        <symbol id="icon-vscode" viewBox="0 0 32 32">
            <path fill="#0065a9" d="m29.01 5.03-5.77-2.78a1.74 1.74 0 0 0-1.98.34L2.38 19.8a1.17 1.17 0 0 0 0 1.72l1.54 1.4A1.17 1.17 0 0 0 5.4 23L28.14 5.75a1.16 1.16 0 0 1 1.86.92v-.06a1.75 1.75 0 0 0-.99-1.58z" style="fill:var(--color10, #0065a9)"/>
            <path fill="#007acc" d="m29.01 26.97-5.77 2.78a1.75 1.75 0 0 1-1.98-.34L2.38 12.2a1.17 1.17 0 0 1 0-1.72l1.54-1.4c.2-.19.46-.3.73-.3s.54.06.76.23l22.73 17.24a1.16 1.16 0 0 0 1.86-.92v.07c0 .33-.1.65-.27.93s-.42.5-.72.64z" style="fill:var(--color11, #007acc)"/>
            <path fill="#1f9cf0" d="M23.24 29.75a1.75 1.75 0 0 1-1.98-.34 1.02 1.02 0 0 0 1.1.22 1.02 1.02 0 0 0 .64-.95V3.32a1.03 1.03 0 0 0-.63-.95 1.02 1.02 0 0 0-1.12.22 1.74 1.74 0 0 1 2-.34L29 5.02a1.8 1.8 0 0 1 1 1.58v18.8a1.75 1.75 0 0 1-1 1.58l-5.76 2.77z" style="fill:var(--color12, #1f9cf0)"/>
        </symbol>
        <symbol id="icon-github" viewBox="0 0 48 48">
            <path d="M24 .6a24 24 0 0 0-7.59 46.77c1.2.22 1.64-.52 1.64-1.16l-.03-4.47c-6.68 1.46-8.09-2.83-8.09-2.83-1.09-2.77-2.66-3.51-2.66-3.51-2.18-1.49.16-1.46.16-1.46 2.41.17 3.68 2.47 3.68 2.47 2.14 3.67 5.62 2.61 6.99 2a5.1 5.1 0 0 1 1.52-3.21C14.3 34.6 8.7 32.53 8.7 23.34a9.3 9.3 0 0 1 2.47-6.44c-.25-.6-1.07-3.05.23-6.36 0 0 2.02-.64 6.6 2.46a22.98 22.98 0 0 1 12.02 0c4.58-3.1 6.6-2.46 6.6-2.46 1.3 3.31.48 5.75.23 6.36a9.27 9.27 0 0 1 2.47 6.44c0 9.22-5.61 11.25-10.96 11.84.86.75 1.63 2.2 1.63 4.44 0 3.22-.03 5.8-.03 6.6 0 .63.43 1.38 1.65 1.14A24 24 0 0 0 24 .6z"/>
        </symbol>
        <symbol id="icon-figma" viewBox="0 0 32 32">
            <path fill="#f24e1e" d="M16 16a5.33 5.33 0 1 1 10.67 0A5.33 5.33 0 1 1 16 16zM5.33 26.67a5.33 5.33 0 0 1 5.34-5.34H16v5.34a5.33 5.33 0 1 1-10.67 0zM16 0v10.67h5.33a5.33 5.33 0 1 0 0-10.67zM5.33 5.33a5.33 5.33 0 0 0 5.34 5.34H16V0h-5.33a5.33 5.33 0 0 0-5.34 5.33zm0 10.67a5.33 5.33 0 0 0 5.34 5.33H16V10.67h-5.33A5.33 5.33 0 0 0 5.33 16z" style="fill:var(--color1, #f24e1e)"/>
        </symbol >
        <symbol id="icon-hello" viewBox="0 0 128 128">
            <path d="M39.11 79.56c-1.1 1.03-2.21-.2-2.21-.2S18.42 59.78 17.22 58.9c-1.69-1.23-5.31-3.16-8.93.57-1.51 1.55-3.97 5 .6 10.56.99 1.2 29.78 31.54 31.46 33.18 0 0 13.3 12.94 21.35 17.81a39.15 39.15 0 0 0 7.67 3.78c2.92 1 6.22 1.69 9.7 1.69 3.48.04 7.09-.63 10.5-1.88a39.34 39.34 0 0 0 9.48-5.2c.71-.54 1.43-1.08 2.1-1.66l1.94-1.6a64.04 64.04 0 0 0 10.37-11.19 52.35 52.35 0 0 0 4.85-8.15 36.73 36.73 0 0 0 2.76-8.09c.58-2.59.74-5.04.65-7.18a23.5 23.5 0 0 0-1.97-8.7l-.51-1.1-1.29-3.63a889.62 889.62 0 0 0-4.51-12.47l.01.03c-4.85-13.17-10.06-26.74-10.06-26.74-.79-2.39-3.7-3.22-5.84-1.68-6.18 4.44-8.07 10.92-5.89 17.83l5.59 15.32c.79 1.71-1.39 3.69-2.85 2.5-4.59-3.74-14.3-14.05-14.3-14.05-4.34-4.16-28.83-29.27-30.47-30.8-3.3-3.07-7.46-4.65-10.63-2.32-3.24 2.38-4.14 6.06-1.01 10.08.85 1.09 25.6 27.24 25.6 27.24 1.44 1.51-.26 3.65-1.85 2.18 0 0-30.79-32.12-32.18-33.62-3.15-3.42-8.21-4.17-11.21-1.35-2.93 2.75-2.86 7.26.34 10.8 1.02 1.12 22.71 24.02 31.39 33.4.58.63 1.03 1.47.17 2.26-.01.01-.88.95-2-.25a7854.96 7854.96 0 0 0-27.24-28.41C18 35 13.96 33.55 10.71 36.53a7.27 7.27 0 0 0-.04 10.78l28.55 30.18s.93 1.1-.11 2.07z" style="fill:#fac036"/>
            <path d="m85.46 54.4 2.41 2.58s-13.79 13.31-4.39 33.75c0 0 1.22 2.59-.38 3.02 0 0-1.4.78-3-3.2 0-.01-9.49-19.42 5.36-36.15z" style="fill:#e48c15"/>
            <path d="M63.28 10.2s5.81.88 11.19 6.64c5.38 5.77 7.87 13.18 7.87 13.18M77.44 3.5s4.87 2.45 8.63 8.5a36.96 36.96 0 0 1 4.67 13.05M35.71 110.73s-5.86.39-12.35-4.09-10.52-11.18-10.52-11.18M31.53 120.56s-5.44.23-11.68-3.22-10.44-9.12-10.44-9.12" style="fill:none;stroke:#444;stroke-width:4;stroke-linecap:round;stroke-miterlimit:10"/>
        </symbol>
        <symbol id="icon-eng-flag" viewBox="0 0 55.2 38.4">
            <style>.st1{fill:#c8102e}.st2{fill:#012169}</style>
            <path d="M2.87 38.4h49.46c1.59-.09 2.87-1.42 2.87-3.03V3.03c0-1.66-1.35-3.02-3.01-3.03H3.01A3.037 3.037 0 0 0 0 3.03v32.33c0 1.62 1.28 2.95 2.87 3.04z" style="fill:#fefefe"/>
            <path d="M23.74 23.03V38.4h7.68V23.03H55.2v-7.68H31.42V0h-7.68v15.35H0v7.68h23.74z" class="st1"/>
            <path d="M33.98 12.43V0h18.23c1.26.02 2.34.81 2.78 1.92L33.98 12.43zM33.98 25.97V38.4h18.35c1.21-.07 2.23-.85 2.66-1.92L33.98 25.97zM21.18 25.97V38.4H2.87a3.043 3.043 0 0 1-2.66-1.94l20.97-10.49zM21.18 12.43V0H2.99A3.04 3.04 0 0 0 .21 1.94l20.97 10.49zM0 12.8h7.65L0 8.97v3.83zM55.2 12.8h-7.69l7.69-3.85v3.85zM55.2 25.6h-7.69l7.69 3.85V25.6zM0 25.6h7.65L0 29.43V25.6z" class="st2"/>
            <path d="M55.2 3.25 36.15 12.8h4.26L55.2 5.4V3.25zM19.01 25.6h-4.26L0 32.98v2.15l19.05-9.53h-.04zM10.52 12.81h4.26L0 5.41v2.14l10.52 5.26zM44.63 25.59h-4.26l14.83 7.43v-2.14l-10.57-5.29z" class="st1"/>
        </symbol>
    </defs>
</svg>